<svg width="41" height="40" viewBox="0 0 41 40" fill="none" xmlns="http://www.w3.org/2000/svg">
<rect x="0.222809" width="40" height="40" rx="8" fill="white"/>
<path d="M20.2228 22.975C20.0895 22.975 19.9601 22.95 19.8348 22.9C19.7095 22.85 19.6055 22.7834 19.5228 22.7L14.9228 18.1C14.7395 17.9167 14.6478 17.6834 14.6478 17.4C14.6478 17.1167 14.7395 16.8834 14.9228 16.7C15.1061 16.5167 15.3395 16.425 15.6228 16.425C15.9061 16.425 16.1395 16.5167 16.3228 16.7L20.2228 20.6L24.1228 16.7C24.3061 16.5167 24.5395 16.425 24.8228 16.425C25.1061 16.425 25.3395 16.5167 25.5228 16.7C25.7061 16.8834 25.7978 17.1167 25.7978 17.4C25.7978 17.6834 25.7061 17.9167 25.5228 18.1L20.9228 22.7C20.8228 22.8 20.7145 22.871 20.5978 22.913C20.4811 22.955 20.3561 22.9757 20.2228 22.975Z" fill="#4F4F4F"/>
</svg>
