<svg width="48" height="48" viewBox="0 0 48 48" fill="none" xmlns="http://www.w3.org/2000/svg">
<path d="M24 25.15C23.7333 25.15 23.4833 25.1086 23.25 25.0259C23.0167 24.9433 22.8 24.8013 22.6 24.6L13.4 15.4C13.0333 15.0333 12.8413 14.5746 12.824 14.024C12.8067 13.4733 12.9987 12.9986 13.4 12.6C13.7667 12.2333 14.2333 12.05 14.8 12.05C15.3667 12.05 15.8333 12.2333 16.2 12.6L24 20.35L31.8 12.6C32.1667 12.2333 32.6253 12.042 33.176 12.026C33.7267 12.01 34.2013 12.2013 34.6 12.6C34.9667 12.9666 35.15 13.4333 35.15 14C35.15 14.5666 34.9667 15.0333 34.6 15.4L25.4 24.6C25.2 24.8 24.9833 24.9419 24.75 25.0259C24.5167 25.1099 24.2667 25.1513 24 25.15ZM24 37.15C23.7333 37.15 23.4833 37.1086 23.25 37.026C23.0167 36.9433 22.8 36.8013 22.6 36.5999L13.4 27.4C13.0333 27.0333 12.8413 26.5753 12.824 26.0259C12.8067 25.4766 12.9987 25.0013 13.4 24.6C13.7667 24.2333 14.2333 24.0499 14.8 24.0499C15.3667 24.0499 15.8333 24.2333 16.2 24.6L24 32.3499L31.8 24.6C32.1667 24.2333 32.6253 24.0413 33.176 24.024C33.7267 24.0066 34.2013 24.1986 34.6 24.6C34.9667 24.9666 35.15 25.4333 35.15 26C35.15 26.5666 34.9667 27.0333 34.6 27.4L25.4 36.5999C25.2 36.7999 24.9833 36.942 24.75 37.026C24.5167 37.11 24.2667 37.1513 24 37.15Z" fill="#4F4F4F"/>
</svg>
