<svg width="32" height="32" viewBox="0 0 32 32" fill="none" xmlns="http://www.w3.org/2000/svg">
<path fill-rule="evenodd" clip-rule="evenodd" d="M7.71731 18.6933C7.7746 18.7124 7.83351 18.7263 7.8933 18.7347C8.27053 19.6236 8.64565 20.5133 9.01864 21.404C9.6893 23.0067 10.3653 24.6573 10.5133 25.132C10.6986 25.716 10.8933 26.1133 11.1066 26.3853C11.2173 26.524 11.344 26.6467 11.4933 26.74C11.5711 26.7887 11.6543 26.8281 11.7413 26.8573C12.168 27.0173 12.5573 26.9507 12.8013 26.8693C12.9445 26.8205 13.0807 26.7532 13.2066 26.6693L13.2133 26.6667L16.9813 24.3173L21.3346 27.6533C21.3986 27.7027 21.468 27.744 21.5426 27.7773C22.0653 28.004 22.572 28.084 23.0493 28.02C23.524 27.9533 23.9013 27.7547 24.1826 27.5293C24.5057 27.269 24.7632 26.9365 24.9346 26.5587L24.9466 26.5293L24.9506 26.5187L24.9533 26.5133V26.5107L24.9546 26.5093C24.9778 26.452 24.9957 26.3926 25.008 26.332L28.9813 6.29867C28.9939 6.23454 29.0001 6.16934 29 6.104C29 5.51734 28.7786 4.95867 28.26 4.62134C27.8146 4.332 27.32 4.31867 27.0066 4.34267C26.6706 4.36934 26.3586 4.452 26.1493 4.51867C26.0321 4.55581 25.9165 4.59762 25.8026 4.644L25.788 4.65067L3.50264 13.392L3.49997 13.3933C3.42457 13.4211 3.35029 13.4518 3.27731 13.4853C3.10059 13.5648 2.93107 13.6594 2.77064 13.768C2.46797 13.9747 1.77064 14.5427 1.88931 15.4813C1.98264 16.228 2.49464 16.688 2.80797 16.9093C2.97864 17.0307 3.14131 17.1173 3.26131 17.1747C3.31464 17.2013 3.42931 17.2467 3.47864 17.268L3.49197 17.272L7.71731 18.6933ZM26.568 6.49067H26.5653C26.5538 6.49576 26.5423 6.50065 26.5306 6.50534L4.21864 15.2587C4.20716 15.2633 4.1956 15.2678 4.18397 15.272L4.17064 15.276C4.12988 15.292 4.08984 15.3098 4.05064 15.3293C4.08775 15.3506 4.12603 15.3697 4.16531 15.3867L8.35464 16.7973C8.4295 16.8226 8.50111 16.8566 8.56797 16.8987L22.404 8.79867L22.4173 8.792C22.471 8.75934 22.5262 8.72909 22.5826 8.70134C22.6786 8.652 22.832 8.58 23.0053 8.52667C23.1253 8.48934 23.4813 8.384 23.8653 8.508C24.069 8.5722 24.2505 8.69239 24.3891 8.85483C24.5278 9.01727 24.6179 9.21543 24.6493 9.42667C24.699 9.61167 24.7003 9.80632 24.6533 9.992C24.56 10.3587 24.304 10.644 24.0693 10.8627C23.8693 11.0493 21.276 13.5507 18.7173 16.02L15.2333 19.38L14.6133 19.98L22.4426 25.9827C22.5483 26.027 22.6631 26.0453 22.7773 26.036C22.8348 26.0282 22.889 26.0041 22.9333 25.9667C22.9874 25.921 23.0337 25.867 23.0706 25.8067L23.0733 25.8053L26.9266 6.37467C26.8053 6.40387 26.6862 6.4422 26.5706 6.48934L26.568 6.49067ZM15.2866 23.016L13.724 21.8187L13.3453 24.2253L15.2866 23.016ZM12.2906 19.4427L13.844 17.9427L17.328 14.58L18.6253 13.3293L9.93197 18.4187L9.97864 18.528C10.5269 19.8232 11.0691 21.121 11.6053 22.4213L11.9826 20.0213C12.0168 19.7987 12.1254 19.5956 12.2906 19.4427Z" fill="white"/>
</svg>
